<svg width="700" height="700" viewBox="0 0 700 700" fill="none" xmlns="http://www.w3.org/2000/svg">
<path d="M348.942 105.5C349.326 104.833 350.289 104.833 350.674 105.5L608.749 552.5C609.134 553.167 608.653 554 607.883 554H545.577C545.22 554 544.89 553.81 544.711 553.501L349 215L491.17 474.5L503 495L536.136 552.501C536.52 553.167 536.039 554 535.27 554H528.425H512.187H479.711H349.808H219.904H187.428H171.19H164.801C164.032 554 163.551 553.167 163.935 552.501L196.213 496.499C196.39 496.19 196.719 495.999 197.076 495.998L503 495L349.5 229L345.5 222.5L155.24 553.498C155.062 553.809 154.731 554 154.373 554H146.833H138.714H122.476H91.732C90.9622 554 90.4811 553.167 90.866 552.5L219.904 329L284.856 216.5L301.094 188.375L309.213 174.312L312.634 168.477C313.021 167.817 313.976 167.818 314.361 168.48L325.062 186.875L345.5 222.5L349.5 229L359.75 246.5L491.17 474.5L349 215L317.621 160.75C317.442 160.441 317.442 160.059 317.621 159.75L348.942 105.5Z" fill="#C7D2FE"/>
<path d="M348.942 105.5C349.326 104.833 350.289 104.833 350.674 105.5L608.749 552.5C609.134 553.167 608.653 554 607.883 554H545.577C545.22 554 544.89 553.81 544.711 553.501L349 215L491.17 474.5L503 495L536.136 552.501C536.52 553.167 536.039 554 535.27 554H528.425H512.187H479.711H349.808H219.904H187.428H171.19H164.801C164.032 554 163.551 553.167 163.935 552.501L196.213 496.499C196.39 496.19 196.719 495.999 197.076 495.998L503 495L349.5 229L345.5 222.5L155.24 553.498C155.062 553.809 154.731 554 154.373 554H146.833H138.714H122.476H91.732C90.9622 554 90.4811 553.167 90.866 552.5L219.904 329L284.856 216.5L301.094 188.375L309.213 174.312L312.634 168.477C313.021 167.817 313.976 167.818 314.361 168.48L325.062 186.875L345.5 222.5L349.5 229L359.75 246.5L491.17 474.5L349 215L317.621 160.75C317.442 160.441 317.442 160.059 317.621 159.75L348.942 105.5Z" fill="#C7D2FE"/>
<path d="M349.134 105.499C349.519 104.832 350.481 104.832 350.866 105.499L609.133 552.5C609.518 553.166 609.037 554 608.267 554H578.245C577.888 554 577.558 553.81 577.38 553.501L381.523 215C437.085 316.341 491.467 474.5 491.467 474.5L503.306 495L519.455 523.003C519.839 523.669 519.359 524.501 518.59 524.503L181.586 524.997C180.816 524.999 180.334 524.165 180.718 523.498L196.291 496.498C196.469 496.19 196.798 495.999 197.154 495.998L503.306 495L349.692 229V222.436C349.692 222.158 349.576 221.892 349.373 221.703L340 213L345.211 222.001C345.39 222.31 345.39 222.691 345.213 223L155.288 553.498C155.11 553.809 154.779 554 154.421 554H146.724C145.956 554 145.474 553.17 145.856 552.504L340 213L349.373 221.703C349.576 221.892 349.692 222.158 349.692 222.436V229L359.95 246.5L491.467 474.5C491.467 474.5 437.085 316.341 381.523 215C369.156 193.635 349.86 160.3 349.832 160.25C349.831 160.249 349.831 160.249 349.83 160.248L334.035 132.624C333.859 132.315 333.86 131.935 334.038 131.627L349.134 105.499Z" fill="#EEF2FF"/>
<path d="M349.134 105.499C349.519 104.832 350.481 104.832 350.866 105.499L609.133 552.5C609.518 553.166 609.037 554 608.267 554H578.245C577.888 554 577.558 553.81 577.38 553.501L381.523 215C437.085 316.341 491.467 474.5 491.467 474.5L503.306 495L519.455 523.003C519.839 523.669 519.359 524.501 518.59 524.503L181.586 524.997C180.816 524.999 180.334 524.165 180.718 523.498L196.291 496.498C196.469 496.19 196.798 495.999 197.154 495.998L503.306 495L349.692 229V222.436C349.692 222.158 349.576 221.892 349.373 221.703L340 213L345.211 222.001C345.39 222.31 345.39 222.691 345.213 223L155.288 553.498C155.11 553.809 154.779 554 154.421 554H146.724C145.956 554 145.474 553.17 145.856 552.504L340 213L349.373 221.703C349.576 221.892 349.692 222.158 349.692 222.436V229L359.95 246.5L491.467 474.5C491.467 474.5 437.085 316.341 381.523 215C369.156 193.635 349.86 160.3 349.832 160.25C349.831 160.249 349.831 160.249 349.83 160.248L334.035 132.624C333.859 132.315 333.86 131.935 334.038 131.627L349.134 105.499Z" fill="#EEF2FF"/>
<path d="M348.633 230.506C349.018 229.838 349.982 229.838 350.367 230.506L497.137 485.501C497.521 486.168 497.04 487 496.271 487H202.729C201.96 487 201.479 486.168 201.863 485.501L348.633 230.506Z" fill="url(#paint0_linear_3_127)"/>
<defs>
<linearGradient id="paint0_linear_3_127" x1="201" y1="487" x2="498.543" y2="320.268" gradientUnits="userSpaceOnUse">
<stop stop-color="#FF5D50"/>
<stop offset="1" stop-color="#D31166"/>
</linearGradient>
</defs>
</svg>
